PathFileType	4	(X/Y/Z)	..\data\2014007\dynamic\2014007_C5_04.trc
DataRate	CameraRate	NumFrames	NumMarkers	Units	OrigDataRate	OrigDataStartFrame	OrigNumFrames
100.000000	100.000000	4	52	mm	100.000000	78	157
Frame#	Time	L_IAS			L_IPS			R_IPS			R_IAS			L_FTC			L_FLE			L_FME			L_FAX			L_TTC			L_FAL			L_TAM			L_FCC			L_FM1			L_FM2			L_FM5			R_FTC			R_FLE			R_FME			R_FAX			R_TTC			R_FAL			R_TAM			R_FCC			R_FM1			R_FM2			R_FM5			CV7			TV10			SXS			SJN			L_SIA			L_SRS			L_SAA			L_SAE			L_HLE			L_HME			L_UOA			L_RSP			L_UHE			L_HM2			L_HM5			R_SIA			R_SRS			R_SAA			R_SAE			R_HLE			R_HME			R_UOA			R_RSP			R_UHE			R_HM2			R_HM5			
		X1	Y1	Z1	X2	Y2	Z2	X3	Y3	Z3	X4	Y4	Z4	X5	Y5	Z5	X6	Y6	Z6	X7	Y7	Z7	X8	Y8	Z8	X9	Y9	Z9	X10	Y10	Z10	X11	Y11	Z11	X12	Y12	Z12	X13	Y13	Z13	X14	Y14	Z14	X15	Y15	Z15	X16	Y16	Z16	X17	Y17	Z17	X18	Y18	Z18	X19	Y19	Z19	X20	Y20	Z20	X21	Y21	Z21	X22	Y22	Z22	X23	Y23	Z23	X24	Y24	Z24	X25	Y25	Z25	X26	Y26	Z26	X27	Y27	Z27	X28	Y28	Z28	X29	Y29	Z29	X30	Y30	Z30	X31	Y31	Z31	X32	Y32	Z32	X33	Y33	Z33	X34	Y34	Z34	X35	Y35	Z35	X36	Y36	Z36	X37	Y37	Z37	X38	Y38	Z38	X39	Y39	Z39	X40	Y40	Z40	X41	Y41	Z41	X42	Y42	Z42	X43	Y43	Z43	X44	Y44	Z44	X45	Y45	Z45	X46	Y46	Z46	X47	Y47	Z47	X48	Y48	Z48	X49	Y49	Z49	X50	Y50	Z50	X51	Y51	Z51	X52	Y52	Z52	

79	0.78	-195.9590606689454	918.8718261718752	135.4425506591797	-390.4986267089845	995.4932861328127	226.7135162353516	-383.2733154296876	1003.596862792969	307.4307556152344	-190.9529266357423	946.557312011719	391.0089111328126	-260.7914123535157	890.031921386719	75.75838470458983	-180.7571105957032	469.072235107422	103.3981018066406	-166.8563690185547	449.1004943847657	224.5711059570313	-225.1464538574219	420.406463623047	101.735466003418	-181.8696289062501	384.0727539062501	157.0359191894531	-461.080780029297	176.3365173339844	142.8507232666015	-426.9059448242189	177.0758514404297	220.3274841308594	-518.6719360351564	179.0089111328125	198.2529296875	-377.8538513183594	64.58851623535158	219.1554260253906	-373.7305297851563	68.84567260742189	168.4322357177734	-411.956756591797	67.62835693359376	131.2586212158203	-255.4239501953126	889.1035156250002	453.0821838378907	-200.8090972900392	473.0308837890626	366.5618286132813	-229.5569458007813	478.0827636718751	237.4946746826172	-225.0557708740236	404.2479248046876	365.6017456054688	-173.9971313476563	404.7981872558595	302.7850036621094	-266.8389587402345	61.15254974365236	310.1928405761719	-256.3017883300782	86.61293029785158	225.1700286865235	-322.2999877929689	26.49031829833985	260.5482788085938	-135.2760925292969	23.61072731018067	225.7545928955078	-124.4810333251954	40.04649353027344	276.7665100097657	-163.4716491699219	26.78460884094239	327.8091125488282	-340.7375488281251	1442.072387695313	245.0784606933594	-387.3435058593752	1206.035400390625	260.5405883789062	-142.0020751953126	1187.2216796875	236.3737030029297	-212.3803100585938	1360.260864257813	233.1330718994141	-405.0453491210939	1221.043212890625	160.9228973388672	-383.1150817871094	1360.809204101563	160.6329040527343	-355.9206237792969	1362.148315429688	88.0530090332031	-306.9582824707032	1364.024780273438	57.25328826904295	-311.5758056640626	1041.655395507813	-3.945633649826089	-327.4570922851563	1025.032958984375	76.49605560302732	-339.9713439941407	1018.58642578125	27.178596496582	-164.9662017822266	826.154724121094	16.33887481689451	-211.6840820312501	818.907409667969	-44.65977859497074	-116.3203353881836	748.3737792968751	1.433338165283189	-204.5294494628907	735.2393188476564	-45.99140167236332	-398.8872070312502	1233.881225585938	355.7882080078125	-372.2388610839845	1362.691650390625	345.1595153808594	-321.2347412109376	1386.732788085938	407.2087097167969	-276.2467346191407	1390.39208984375	424.5546264648438	-283.1178588867189	1082.537109375	535.3120727539064	-330.6646118164064	1065.416259765625	464.8032531738282	-325.6329040527345	1051.074951171875	518.1793212890626	-161.9177703857423	849.3731079101565	497.0285034179689	-196.0524444580079	851.433044433594	567.6130981445314	-129.1736297607423	772.9416503906252	498.7912902832032	-187.7440338134766	776.4399414062502	578.7849121093751	
80	0.79	-183.853500366211	921.219421386719	135.57373046875	-377.9508056640626	997.6882934570315	227.2183532714844	-370.5654296875001	1005.488342285156	307.776123046875	-178.5973510742188	947.6347656250002	391.0608215332032	-248.4587554931641	892.7509765625002	75.64304351806639	-157.7619323730469	473.6086730957032	103.1343154907227	-143.8016052246094	453.7595214843751	224.170150756836	-200.7074737548829	423.3297424316407	101.2626876831055	-156.2527008056641	388.3944702148439	156.1618347167969	-425.8956298828126	168.5146942138672	140.3566741943359	-392.1512145996095	170.4036712646485	217.9309997558594	-484.5272827148439	167.3104705810547	195.7387084960938	-336.3426208496094	60.99976730346681	214.6261901855469	-332.4812316894532	66.86514282226564	164.1064300537109	-370.6412048339844	63.93250656127931	126.7797393798828	-243.4814300537111	889.6369628906252	452.8982849121094	-198.4788513183595	472.8702392578126	366.3410339355469	-227.3692932128907	478.2749023437501	237.0880737304688	-223.5686645507814	404.512664794922	365.3196411132813	-172.2934265136719	404.4554138183595	302.3851623535157	-266.871063232422	61.24104309082033	310.1507568359375	-256.2192993164063	86.76545715332033	225.1558990478516	-322.4220275878907	26.71284103393555	260.5531311035156	-135.3188171386719	23.41976165771485	225.7027130126953	-124.4491195678712	39.86998748779298	276.7009582519532	-163.4817810058594	26.64124488830567	327.7784118652344	-327.3909606933595	1443.699096679688	245.1844329833985	-374.3920288085939	1207.857055664063	261.2326049804688	-129.4360961914063	1188.720336914063	235.7303009033203	-199.1713867187501	1361.576904296875	232.9209747314453	-392.6380920410157	1222.931640625	161.9779815673828	-370.1445922851563	1362.429321289063	161.202392578125	-343.3941345214844	1363.70849609375	88.5427551269531	-294.6818542480469	1365.430786132813	57.39914321899412	-306.0877075195313	1043.189575195313	-2.477809667587318	-320.9799194335938	1027.077270507813	77.95867919921872	-334.3262939453126	1021.162353515625	28.86792373657223	-166.0588684082032	823.0662231445315	15.64675045013426	-214.0171051025391	817.3516845703127	-44.63822555541996	-120.704948425293	743.3472290039064	0.3121746182441564	-209.981185913086	733.3767700195314	-45.85595703125004	-385.6438293457033	1236.131469726563	356.8375854492188	-358.630828857422	1364.700317382813	345.6395263671875	-307.3090209960939	1388.728271484375	407.3392333984376	-262.2581787109376	1392.251586914063	424.4496459960938	-267.3461303710939	1084.458129882813	536.1888427734376	-315.7776184082032	1067.194213867188	466.1311340332032	-309.8462524414064	1052.384521484375	519.5321655273439	-143.5173797607423	853.124694824219	494.8881835937501	-176.6893615722657	854.298767089844	565.9598999023439	-109.5018997192384	777.2366333007815	495.8036499023439	-166.9645996093751	779.4194335937502	576.6665649414064	
81	0.8	-171.6410369873047	923.385925292969	135.7446746826172	-365.3698730468751	999.5438232421877	227.5968780517578	-357.8652954101564	1007.052978515625	308.0269775390625	-166.2384796142579	948.4295654296877	391.0255432128907	-235.9804382324219	895.1955566406252	75.48892974853514	-135.3935852050782	477.9293823242189	103.0658645629883	-121.4176025390626	458.2466125488282	223.9320983886719	-176.6839141845703	425.9184875488282	100.9208602905273	-131.0708007812501	392.5163879394532	155.4917449951172	-389.8186645507814	159.8652648925782	137.8319244384765	-356.5838928222657	163.0051574707032	215.5394744873047	-449.1754760742189	154.7129821777344	193.1030883789062	-294.0383300781251	57.04488372802736	210.1901092529297	-290.5263061523438	64.49517822265626	159.8867950439453	-328.5194091796876	59.81245803833009	122.3872528076172	-231.4092864990236	890.016296386719	452.746063232422	-196.1693725585939	472.686737060547	366.1803588867188	-225.245819091797	478.4853820800782	236.7116088867188	-222.0863647460939	404.778533935547	365.0912170410157	-170.5858917236329	404.1192626953126	302.0798034667969	-266.8909301757814	61.33381271362306	310.1190795898438	-256.1080322265626	86.95181274414064	225.1883544921875	-322.4991149902345	26.93378067016602	260.5339050292969	-135.3267211914063	23.27170944213868	225.6769409179688	-124.385597229004	39.73410415649415	276.6770935058594	-163.4755096435547	26.50853919982911	327.7891540527344	-314.0945739746095	1444.996826171875	245.3146057128907	-361.4589843750001	1209.324951171875	261.9122314453125	-116.8937530517579	1189.990844726563	235.1651000976563	-186.0162048339844	1362.606201171875	232.7459259033203	-380.2445983886719	1224.501586914063	163.0318298339843	-357.2206115722657	1363.721801757813	161.7944030761718	-330.9046630859376	1364.959838867188	89.05107116699216	-282.4412841796876	1366.569580078125	57.5862350463867	-300.6326293945313	1044.615600585938	-0.9710358977318181	-314.4808654785157	1028.947021484375	79.47824859619138	-328.6354370117188	1023.585998535156	30.61528587341305	-167.3621215820313	820.0850219726565	14.99802875518797	-216.575180053711	815.9426879882815	-44.5027008056641	-125.3719558715821	738.5633544921876	-0.804911077022568	-215.6543884277344	731.7804565429689	-45.59303665161136	-372.4008789062501	1237.998046875	357.8715515136719	-345.0852966308595	1366.333862304688	346.1177673339844	-293.4870910644532	1390.357299804688	407.4862670898438	-248.3831329345704	1393.769897460938	424.3757934570313	-251.7270965576173	1086.043212890625	537.0644531250001	-300.9641113281251	1068.610717773438	467.4328002929688	-294.1543273925782	1053.35009765625	520.8251953125001	-125.0993041992188	856.7158813476565	492.7650756835939	-157.4415435791016	856.917175292969	564.2347412109376	-89.7313308715821	781.4519042968752	492.8367919921876	-146.2349700927735	782.1827392578127	574.4240112304689	
82	0.8100000000000001	-159.2944488525391	925.298767089844	135.9476318359375	-352.7528076171876	1001.012329101563	227.8165740966797	-345.1777648925782	1008.262939453125	308.1502990722656	-153.8726501464845	948.9188232421877	390.916473388672	-223.3219451904297	897.2981567382815	75.29579162597655	-113.6938171386719	481.9224853515626	103.1839752197266	-99.80142974853521	462.4364013671876	223.8607788085938	-153.0998077392578	428.0936584472657	100.7075576782227	-106.3956756591797	396.3710327148439	155.0573272705078	-352.8489074707032	150.6239776611328	135.297866821289	-320.2163696289063	155.1007843017578	213.1758880615235	-412.5515136718751	141.5033874511719	190.3708343505859	-251.0254974365235	52.96219635009767	205.8805236816407	-247.9642791748048	61.9372024536133	155.8027496337891	-285.6907958984376	55.499813079834	118.1248321533203	-219.2444152832032	890.2274169921877	452.6190490722657	-193.815155029297	472.4685058593751	366.0812072753907	-223.1380767822266	478.706512451172	236.3784942626953	-220.5556030273439	405.0242004394532	364.9213256835938	-168.8441772460938	403.7620239257814	301.8772888183594	-266.8988037109376	61.4239845275879	310.096435546875	-255.9744415283204	87.15875244140626	225.264877319336	-322.5313110351564	27.14043807983399	260.486572265625	-135.3049621582032	23.1767692565918	225.6780395507813	-124.2968063354493	39.64298248291016	276.6931457519532	-163.4571533203126	26.38584899902344	327.8430786132813	-300.8399658203126	1445.940795898438	245.458984375	-348.5392456054689	1210.412963867188	262.5555725097656	-104.3535156250001	1190.994262695313	234.6778564453126	-172.9095764160157	1363.330932617188	232.6070251464844	-367.8497314453126	1225.719360351563	164.0705108642578	-344.3400573730469	1364.666259765625	162.4071960449219	-318.4508666992188	1365.8837890625	89.57505798339841	-270.2354736328126	1367.425537109375	57.81008529663084	-295.1795654296876	1045.916137695313	0.5677477121352789	-307.9352416992188	1030.633544921875	81.05194854736325	-322.8797607421876	1025.8388671875	32.42108917236325	-168.8442535400391	817.2083740234377	14.4108085632324	-219.3043975830079	814.6799316406252	-44.24294281005863	-130.2600555419922	734.0252075195314	-1.893285989761369	-221.4821929931641	730.4534912109376	-45.19183349609379	-359.1533508300782	1239.4384765625	358.8597106933594	-331.603485107422	1367.557739257813	346.5894470214844	-279.7684326171876	1391.578247070313	407.6551208496094	-234.6168060302736	1394.906494140625	424.3389282226563	-236.232635498047	1087.255981445313	537.9258422851564	-286.2125854492189	1069.621215820313	468.7124633789063	-278.5407104492189	1053.943725585938	522.0538330078126	-106.6752548217774	860.0972900390627	490.6730346679689	-138.3348388671876	859.2330322265627	562.4448852539064	-69.88413238525398	785.5432739257815	489.9020996093751	-125.6007690429688	784.6695556640627	572.0521240234376	
